<svg width="96" height="96" xmlns="http://www.w3.org/2000/svg" xmlns:xlink="http://www.w3.org/1999/xlink" xml:space="preserve" overflow="hidden"><g transform="translate(-236 -514)"><path d="M284.005 524C263.018 524 246.005 541.013 246.005 562 246.005 582.987 263.018 600 284.005 600 304.992 600 322.005 582.987 322.005 562 322.005 541.013 304.992 524 284.005 524ZM293.089 539.425C293.406 538.367 294.521 537.766 295.579 538.084 295.579 538.084 295.58 538.084 295.58 538.084L305.58 541.084C306.638 541.401 307.239 542.515 306.922 543.573 306.669 544.42 305.89 545 305.006 545 304.811 545 304.617 544.972 304.43 544.916L294.43 541.916C293.372 541.599 292.771 540.484 293.089 539.426 293.089 539.425 293.089 539.425 293.089 539.425ZM262.43 541.084 272.43 538.084C273.488 537.766 274.603 538.367 274.921 539.425 275.239 540.483 274.638 541.598 273.58 541.916L263.58 544.916C263.392 544.972 263.196 545 263 545 261.895 545 261 544.105 261 543 260.999 542.117 261.579 541.338 262.426 541.084ZM263.456 560.311C263.456 556.855 265.724 554.441 268.971 554.441 270.125 554.458 271.224 554.934 272.026 555.763 272.758 556.5 273.155 557.504 273.126 558.542 273.093 559.508 272.283 560.265 271.316 560.232 270.35 560.2 269.593 559.39 269.626 558.423 269.617 558.335 269.575 558.253 269.508 558.195 269.366 558.047 269.174 557.957 268.969 557.941 267.216 557.941 266.954 559.426 266.954 560.311 266.956 562.488 268.723 564.252 270.9 564.25 273.859 564.247 276.258 561.848 276.261 558.889 276.257 554.948 273.063 551.754 269.122 551.75 263.955 551.756 259.767 555.944 259.761 561.111 259.761 562.078 258.978 562.861 258.011 562.861 257.044 562.861 256.261 562.078 256.261 561.111 256.269 554.013 262.019 548.261 269.117 548.25 274.99 548.257 279.749 553.016 279.756 558.889 279.75 563.778 275.789 567.741 270.9 567.75 266.791 567.748 263.46 564.42 263.456 560.311ZM284.005 591C279.035 591 275.005 586.523 275.005 581 275.005 575.477 279.035 571 284.005 571 288.975 571 293.005 575.477 293.005 581 293.005 586.523 288.976 591 284.005 591ZM297.9 567.75C292.025 567.747 287.262 562.986 287.256 557.111 287.262 552.22 291.226 548.256 296.117 548.25 300.224 548.254 303.552 551.582 303.556 555.689 303.556 559.145 301.288 561.559 298.041 561.559 296.888 561.542 295.789 561.066 294.986 560.238 294.255 559.501 293.857 558.496 293.886 557.458 293.919 556.492 294.729 555.735 295.695 555.768 296.662 555.8 297.419 556.61 297.386 557.577 297.395 557.665 297.437 557.747 297.504 557.805 297.646 557.953 297.838 558.043 298.042 558.059 299.795 558.059 300.057 556.574 300.057 555.689 300.055 553.515 298.293 551.752 296.118 551.75 293.159 551.753 290.76 554.152 290.757 557.111 290.761 561.054 293.957 564.248 297.9 564.25 303.067 564.244 307.255 560.056 307.261 554.889 307.261 553.922 308.044 553.139 309.011 553.139 309.978 553.139 310.761 553.922 310.761 554.889 310.753 561.989 305 567.742 297.9 567.75Z" fill="#FFFFFF"/></g></svg>