<svg width="96" height="96" xmlns="http://www.w3.org/2000/svg" xmlns:xlink="http://www.w3.org/1999/xlink" xml:space="preserve" overflow="hidden"><g transform="translate(-592 -506)"><path d="M640 516C619 516 602 533 602 554 602 575 619 592 640 592 661 592 678 575 678 554 678 533 661 516 640 516ZM614 554C614 549 615.4 544.3 617.9 540.4L653.7 576.2C649.7 578.6 645 580 640 580 625.7 580 614 568.3 614 554ZM662.1 567.6 626.4 531.9C630.3 529.4 635 528 640 528 654.3 528 666 539.7 666 554 666 559 664.6 563.7 662.1 567.6Z" fill="#FFFFFF"/></g></svg>