<svg width="96" height="96" xmlns="http://www.w3.org/2000/svg" xmlns:xlink="http://www.w3.org/1999/xlink" xml:space="preserve" overflow="hidden"><g transform="translate(-181 -349)"><path d="M229 363C247.7 363 263 378.3 263 397 263 415.7 247.7 431 229 431 210.3 431 195 415.7 195 397 195 378.3 210.3 363 229 363M229 359C208 359 191 376 191 397 191 418 208 435 229 435 250 435 267 418 267 397 267 376 250 359 229 359L229 359Z" fill="#FFFFFF"/><path d="M229 407C220.9 407 213.8 410.8 209.2 416.8 209 417.1 208.8 417.5 208.8 418 208.8 419.1 209.7 420 210.8 420 211.5 420 212.1 419.7 212.4 419.2 216.2 414.2 222.2 411.1 229 411.1 235.8 411.1 241.7 414.2 245.6 419.2 246 419.7 246.6 420 247.2 420 248.3 420 249.2 419.1 249.2 418 249.2 417.6 249.1 417.2 248.8 416.8 244.2 410.9 237.1 407 229 407Z" fill="#FFFFFF"/><path d="M210 405C210 406.7 211.3 408 213 408 214.7 408 216 406.7 216 405 216 403.3 213 399 213 399 213 399 210 403.3 210 405Z" fill="#FFFFFF"/><path d="M219 391C219 394.314 216.314 397 213 397 209.686 397 207 394.314 207 391 207 387.686 209.686 385 213 385 216.314 385 219 387.686 219 391Z" fill="#FFFFFF"/><path d="M251 391C251 394.314 248.314 397 245 397 241.686 397 239 394.314 239 391 239 387.686 241.686 385 245 385 248.314 385 251 387.686 251 391Z" fill="#FFFFFF"/></g></svg>