<svg width="96" height="96" xmlns="http://www.w3.org/2000/svg" xmlns:xlink="http://www.w3.org/1999/xlink" xml:space="preserve" overflow="hidden"><g transform="translate(-506 -595)"><path d="M575.014 645.271C575.979 645.807 576.327 647.025 575.791 647.991 575.254 648.956 574.037 649.304 573.071 648.768 573.047 648.754 573.023 648.74 573 648.726L561 641.726C560.046 641.169 559.724 639.945 560.28 638.991 560.454 638.693 560.702 638.445 561 638.271L573 631.271C573.954 630.714 575.179 631.036 575.735 631.99 576.292 632.945 575.97 634.169 575.016 634.726L565.976 640Z" fill="#FFFFFF"/><path d="M554.013 609C572.791 609 588.013 624.222 588.013 643 588.013 661.778 572.791 677 554.013 677 535.235 677 520.013 661.778 520.013 643 520.034 624.231 535.244 609.021 554.013 609M554.013 605C533.026 605 516.013 622.013 516.013 643 516.013 663.987 533.026 681 554.013 681 575 681 592.013 663.987 592.013 643 592.013 622.013 575 605 554.013 605Z" fill="#FFFFFF"/><path d="M531.088 624.43C531.401 623.374 532.51 622.77 533.567 623.079 537.557 624.085 541.775 622.777 544.495 619.689 545.207 618.844 546.469 618.737 547.313 619.449 548.158 620.161 548.265 621.422 547.554 622.267 547.542 622.281 547.529 622.295 547.517 622.309 544.728 625.593 540.619 627.459 536.311 627.4 535.004 627.412 533.701 627.25 532.437 626.917 531.378 626.603 530.774 625.49 531.088 624.431 531.088 624.431 531.088 624.43 531.088 624.43Z" fill="#FFFFFF"/><path d="M575.575 626.916C574.311 627.249 573.008 627.412 571.7 627.4 567.394 627.458 563.287 625.591 560.5 622.309 559.788 621.464 559.896 620.203 560.74 619.491 561.568 618.793 562.801 618.881 563.522 619.689 566.243 622.777 570.461 624.085 574.452 623.078 575.512 622.766 576.623 623.373 576.935 624.433 577.247 625.493 576.64 626.604 575.58 626.916Z" fill="#FFFFFF"/><path d="M534.008 649C532.903 649.002 532.007 648.107 532.005 647.003 532.004 646.289 532.383 645.63 533 645.271L542.036 640 533 634.726C532.046 634.169 531.724 632.945 532.281 631.99 532.837 631.036 534.062 630.714 535.016 631.271L547.016 638.271C547.97 638.828 548.292 640.052 547.736 641.006 547.562 641.304 547.314 641.552 547.016 641.726L535.016 648.726C534.71 648.905 534.362 649 534.008 649Z" fill="#FFFFFF"/><path d="M538.144 666C539.242 657.24 547.233 651.028 555.993 652.125 563.246 653.034 568.959 658.747 569.868 666Z" fill="#FFFFFF"/></g></svg>