<svg width="4397" height="301" xmlns="http://www.w3.org/2000/svg" xmlns:xlink="http://www.w3.org/1999/xlink" xml:space="preserve" overflow="hidden"><g transform="translate(-30 -987)"><path d="M40.6561 1259.16C45.3107 1245.65 49.9652 1232.14 81.2789 1193.29 112.593 1154.43 145.599 1059.84 228.537 1026.06 311.476 992.274 456.196 991.43 578.911 990.585 701.626 989.74 829.42 994.808 964.83 1020.99 1100.24 1047.17 1272.89 1116.43 1391.37 1147.68 1509.86 1178.93 1546.25 1204.26 1675.73 1208.49 1805.22 1212.71 2030.34 1190.75 2168.29 1173.02 2306.24 1155.28 2362.09 1119.81 2503.43 1102.07 2644.76 1084.33 2874.96 1072.51 3016.29 1066.6 3157.63 1060.69 3351.43 1066.6 3351.43 1066.6L3666.26 1066.6C3783.9 1066.6 3939.62 1056.46 4057.26 1066.6 4174.9 1076.73 4311.15 1114.74 4372.09 1127.41 4433.02 1140.08 4422.87 1142.61 4422.87 1142.61L30.5001 1284.5" stroke="#FFFFFF" stroke-width="6.875" stroke-miterlimit="8" fill="#FFFFFF" fill-rule="evenodd"/></g></svg>