<svg width="96" height="96" xmlns="http://www.w3.org/2000/svg" xmlns:xlink="http://www.w3.org/1999/xlink" xml:space="preserve" overflow="hidden"><g transform="translate(-836 -404)"><path d="M869 434.8C869 439.771 864.971 443.8 860 443.8 855.029 443.8 851 439.771 851 434.8 851 429.829 855.029 425.8 860 425.8 864.971 425.8 869 429.829 869 434.8Z" fill="#FFFFFF"/><path d="M917 434.8C917 439.771 912.971 443.8 908 443.8 903.029 443.8 899 439.771 899 434.8 899 429.829 903.029 425.8 908 425.8 912.971 425.8 917 429.829 917 434.8Z" fill="#FFFFFF"/><path d="M902 478.2 902 469.2C902 467.8 901.4 466.4 900.2 465.6 897.8 463.6 894.6 462.2 891.4 461.4 889.2 460.8 886.6 460.2 884 460.2 881.6 460.2 879 460.6 876.6 461.4 873.4 462.2 870.4 463.8 867.8 465.6 866.6 466.6 866 467.8 866 469.2L866 478.2 902 478.2Z" fill="#FFFFFF"/><path d="M893 448.8C893 453.771 888.971 457.8 884 457.8 879.029 457.8 875 453.771 875 448.8 875 443.829 879.029 439.8 884 439.8 888.971 439.8 893 443.829 893 448.8Z" fill="#FFFFFF"/><path d="M924.2 451.6C921.8 449.6 918.6 448.2 915.4 447.4 913.2 446.8 910.6 446.2 908 446.2 905.6 446.2 903 446.6 900.6 447.4 899.4 447.8 898.2 448.2 897 448.8L897 449C897 452.4 895.6 455.6 893.4 457.8 897.2 459 900.2 460.6 902.6 462.4 903.2 463 903.8 463.4 904.2 464.2L926 464.2 926 455.2C926 453.8 925.4 452.4 924.2 451.6Z" fill="#FFFFFF"/><path d="M865.4 462.4 865.4 462.4C868.2 460.4 871.4 458.8 874.6 457.8 872.4 455.4 871 452.4 871 449 871 448.8 871 448.8 871 448.6 869.8 448.2 868.6 447.6 867.4 447.4 865.2 446.8 862.6 446.2 860 446.2 857.6 446.2 855 446.6 852.6 447.4 849.4 448.4 846.4 449.8 843.8 451.6 842.6 452.4 842 453.8 842 455.2L842 464.2 863.6 464.2C864.2 463.4 864.6 463 865.4 462.4Z" fill="#FFFFFF"/></g></svg>