<svg width="96" height="96" xmlns="http://www.w3.org/2000/svg" xmlns:xlink="http://www.w3.org/1999/xlink" xml:space="preserve" overflow="hidden"><g transform="translate(-652 -124)"><path d="M711.7 164.8 702.8 164.8C699 164.8 695.9 167.8 695.9 171.6L695.9 179 691.4 179 691.4 173.1C691.4 171 691.5 168.3 690 166.6 689.1 165.6 688.1 164.8 687 164 686.2 163.5 685.4 162.9 684.8 162.1 684.5 161.7 684.3 161.2 684.1 160.7 685.3 160.2 686.6 160.1 687.8 160.2 688.4 160.2 688.9 159.8 688.9 159.2 689 158.6 688.6 158.1 688.1 157.9 686.6 157.7 685 157.9 683.5 158.4 683.5 158.2 683.5 158 683.4 157.9 683.3 157 683.5 156.1 683.7 155.2 684.5 153.1 686.5 152.2 688.4 151.5 688.7 151.4 689.1 151.3 689.6 151.2L689.9 151.1 690 151.1C690.5 151.2 690.9 151.3 691.3 151.4L691.8 151.5 692.4 151.6C693.4 152.8 693.9 154.3 693.8 155.8 693.7 157.3 693 158.7 691.8 159.7 691.4 160.1 691.3 160.8 691.7 161.3 692.1 161.7 692.7 161.8 693.2 161.4 693.9 160.8 694.5 160.1 694.9 159.3L695 159.3C696.7 159.1 698.4 158.6 699.9 157.8 700.1 157.6 700.3 157.4 700.4 157.1 700.5 156.8 700.4 156.5 700.2 156.3 699.8 155.8 699.2 155.7 698.7 156 697.8 156.5 696.9 156.9 695.8 157 695.9 156.7 696 156.3 696 156 696.1 154.7 695.9 153.4 695.4 152.3 696.2 152.4 697 152.5 697.8 152.5 698.5 152.5 699.2 152.4 699.9 152.3 701.2 153.9 702.9 155 704.9 155.5 707.5 156.8 709.9 158.5 709.9 161.3 709.9 161.7 710.1 162.2 710.4 162.4 710.8 162.6 711.2 162.6 711.6 162.4 712 162.2 712.2 161.7 712.1 161.3 712.1 159.1 711.1 157.1 709.4 155.8 710.8 155.7 712 155 712.9 154 713.3 153.5 713.2 152.8 712.8 152.4 712.3 152 711.6 152.1 711.2 152.5 710.7 153.1 709.4 153.6 707.5 153.5 705.6 153.5 703.7 152.8 702.3 151.6 703.9 150.9 705.3 149.7 706.2 148.2 706.5 147.7 706.3 147 705.8 146.6 705.3 146.3 704.6 146.5 704.3 147 702.6 150.1 699 151 693.3 149.6 694.6 148.5 695.2 146.8 695 145.1 695 144.7 694.8 144.3 694.4 144.1 694 143.9 693.6 143.9 693.2 144.2 692.8 144.4 692.7 144.9 692.7 145.3 692.8 147.9 691.4 148.4 689.1 149.1 688.8 149.2 688.4 149.3 688.1 149.4 687.5 148 686.2 146.9 684.7 146.5 684.3 146.4 683.9 146.5 683.6 146.8 683.3 147.1 683.2 147.5 683.3 148 683.4 148.4 683.7 148.7 684.2 148.8 685 149 685.6 149.6 686 150.3L686 150.4C684.1 151.2 682.6 152.7 681.9 154.6 681.7 155 681.6 155.5 681.6 156 681.4 155.8 681.2 155.6 681.1 155.3 680.7 154.5 680.4 153.5 680.3 152.6 680.2 152.2 679.9 151.8 679.6 151.7 679.2 151.5 678.8 151.6 678.5 151.9 678.2 152.2 678 152.6 678.2 153 678.4 154.2 678.7 155.3 679.3 156.3 679.9 157.3 680.7 158.1 681.8 158.6 681.9 160 682.4 161.4 683.1 162.7 682.4 163.6 681.5 164.3 680.5 164.9 680.2 165.1 680 165.5 679.9 165.9 679.9 166.3 680.1 166.7 680.5 166.9 680.9 167.1 681.3 167.1 681.6 166.8 682.6 166.1 683.5 165.4 684.3 164.5 684.9 165 685.5 165.4 686.1 165.8 687.1 166.4 687.9 167.1 688.7 168 689.6 169.1 689.6 171.2 689.6 173L689.6 179 685 179C685 171.6 681.4 171.2 681 171 679.5 170.6 675.6 168.5 674.7 164.3 674.6 164.1 674.6 163.8 674.6 163.6 672.9 161.2 673 157.9 674.9 155.6 674.7 154.9 674.6 154.2 674.6 153.5 674.6 150.3 676.9 147.5 680.1 146.9 681.1 144.1 683.7 142.2 686.6 142.3 687.1 142.3 687.7 142.4 688.2 142.5 689.4 141.1 691.1 140.3 693 140.1 694.9 140 696.7 140.6 698.1 141.9 699.9 140.7 702.1 140.4 704.1 141 706.2 141.6 707.8 143.2 708.5 145.2L708.9 145.2C712.7 145.2 715.7 148.2 715.8 152L715.8 152.3C718.1 153.6 719.4 156.1 719.2 158.7 718.4 162.2 715.3 164.9 711.7 164.8ZM733 175.3 726.1 163.4 726.1 163C726.5 152 720.9 141.7 711.4 136.2 701.9 130.6 690.2 130.6 680.7 136.2 671.2 141.7 665.6 152 666 163 666 172.4 670.3 181.3 677.8 187L677.8 212 709.4 212 709.4 200.1 714.3 200.1C717.5 200.1 720.5 198.9 722.7 196.6 724.9 194.4 726.1 191.3 726.1 188.2L726.1 182.2 730.5 182.2C733.1 182 735.4 179 733 175.3Z" fill="#FFFFFF"/></g></svg>