<svg width="96" height="96" xmlns="http://www.w3.org/2000/svg" xmlns:xlink="http://www.w3.org/1999/xlink" xml:space="preserve" overflow="hidden"><g transform="translate(-83 -76)"><path d="M112 123C121.532 123 129 118.607 129 113 129 107.393 121.532 103 112 103 102.468 103 95 107.393 95 113 95 118.607 102.468 123 112 123ZM112 107C119.661 107 125 110.162 125 113 125 115.838 119.661 119 112 119 104.339 119 99 115.838 99 113 99 110.162 104.339 107 112 107Z" fill="#FFFFFF"/><path d="M121 113C121 115.209 116.971 117 112 117 107.029 117 103 115.209 103 113 103 110.791 107.029 109 112 109 116.971 109 121 110.791 121 113Z" fill="#FFFFFF"/><path d="M172.662 115.788C161.619 110.815 150.194 110.888 138.651 115.944 138.881 114.979 138.998 113.992 139 113 139 102.907 127.141 95 112 95 96.859 95 85 102.907 85 113L85 133.694C85 144.52 97.369 153 113.159 153 122.659 153 132.521 147.789 137.818 144.989 148.875 139.145 159.77 138.562 170.198 143.258L177 146.323 177 117.742ZM144 120.264C145.311 119.801 146.647 119.408 148 119.086L148 132 144 132ZM94 127 94.848 127C95.8686 127.551 96.9212 128.042 98 128.468L98 134 94 134ZM114 130.948C115.367 130.881 116.7 130.754 118 130.567L118 137 114 137ZM124 129.185C125.368 128.744 126.705 128.21 128 127.585L128 140 124 140ZM134 124.829C135.435 124.194 136.728 123.565 137.818 122.989 137.879 122.957 137.939 122.93 138 122.898L138 130 134 130ZM108 142 104 142 104 130.225C105.323 130.488 106.658 130.683 108 130.81ZM154 125 154 118.192C155.332 118.111 156.668 118.111 158 118.192L158 125ZM112 101C123.383 101 133 106.5 133 113 133 119.5 123.383 125 112 125 100.617 125 91 119.505 91 113 91 106.495 100.617 101 112 101ZM171 137.078C168.973 136.26 166.885 135.602 164.755 135.109 163.661 132.702 163.064 130.098 163 127.455 163.039 124.629 163.871 121.871 165.4 119.494 167.039 119.97 168.643 120.56 170.2 121.258L171 121.619Z" fill="#FFFFFF"/></g></svg>